# xmcd
#
# Track frame offsets: 
#        150
#        17940
#        30669
#        47930
#        74266
#        87097
#        108592
#        126393
#        151305
#        166480
#        189245
#
# Disc length: 2817 seconds
#
# Revision: 0
# Processed by: cddbd v1.5.2PL0 Copyright (c) Steve Scherf et al.
# Submitted via: ExactAudioCopyFreeDBPlugin 1.0
#
DISCID=910aff0b
DTITLE=Boyz II Men - Icon
DYEAR=2013
DGENRE=R&B
TTITLE0=Motownphilly
TTITLE1=It's So Hard To Say Goodbye To Yesterday
TTITLE2=Uhh Ahh
TTITLE3=End Of The Road
TTITLE4=In The Still Of The Night (I'll Remember)
TTITLE5=Hey Lover [LL Cool J Feat. Boyz II Men]
TTITLE6=I'll Make Love To You
TTITLE7=On Bended Knee
TTITLE8=Water Runs Dry
TTITLE9=A Song For Mama
TTITLE10=4 Seasons Of Loneliness
EXTD=
EXTT0=
EXTT1=
EXTT2=
EXTT3=
EXTT4=
EXTT5=
EXTT6=
EXTT7=
EXTT8=
EXTT9=
EXTT10=
PLAYORDER=
